<svg viewBox="0 0 4267 4267" xmlns="http://www.w3.org/2000/svg" xml:space="preserve" style="fill-rule:evenodd;clip-rule:evenodd;stroke-linejoin:round;stroke-miterlimit:2"><path d="M-461.477-461.474c-254.864 0-461.474 206.61-461.474 461.475s206.61 461.476 461.474 461.476C-206.608 461.477 0 254.866 0 .001s-206.608-461.475-461.477-461.475" style="fill:#ffdd7e;fill-rule:nonzero" transform="matrix(0 -4.16667 -4.16667 0 2139.76 210.519)"/><path d="M0 .442c-.136 90.346-27.063 178.967-77.351 254.032-48.812 72.864-118.916 130.429-199.385 165.085-83.788 36.085-178.613 45.336-267.98 27.634-86.857-17.204-167.422-60.351-230.506-122.375-63.07-62.013-106.91-142.078-125.626-228.479-19.372-89.427-10.668-184.037 23.777-268.709 32.97-81.046 90.369-151.74 162.135-201.61 73.96-51.394 162.419-79.518 252.407-81.002 90.384-1.49 179.836 24.459 255.604 73.671 73.539 47.763 132.092 116.977 167.905 196.928C-13.063-126.436-.095-62.978 0 .442c.012 7.738 12.012 7.739 12 0-.136-90.556-26.522-179.879-76.081-255.709-48.07-73.553-117.025-132.864-196.886-169.471-83.552-38.3-177.391-50.575-268.116-36.496-88.012 13.657-170.916 53.634-237.42 112.691-66.032 58.636-114.48 136.169-138.722 221.034-25.221 88.296-23.362 183.951 4.679 271.331 26.946 83.969 78.282 159.421 145.962 215.861 68.796 57.37 153.239 93.657 242.064 104.742 90.776 11.33 184.061-4.955 265.899-45.658 78.65-39.118 145.288-101.043 190.971-175.971C-11.317 170.083 11.872 85.52 12 .442c.012-7.739-11.988-7.738-12 0" style="fill:#231f20;fill-rule:nonzero" transform="translate(4037.574 2131.498) scale(4.16667)"/><path d="M-50-50c-75.6 0-136.885 22.386-136.885 50S-125.6 50-50 50 86.885 27.614 86.885 0 25.6-50-50-50" style="fill:#231f20;fill-rule:nonzero" transform="matrix(0 -4.16667 -4.16667 0 1638.868 1175.48)"/><path d="M-50-50c-75.6 0-136.885 22.387-136.885 50 0 27.615 61.285 50 136.885 50S86.885 27.615 86.885 0C86.885-27.613 25.6-50-50-50" style="fill:#231f20;fill-rule:nonzero" transform="matrix(0 -4.16667 -4.16667 0 2683.952 1175.48)"/><path d="m-641.731-292.779-.187.062c-1.223.41-2.443.828-3.641 1.304l-.189.075c-.171.083-.39.187-.663.316-1.659.783-3.301 1.608-4.882 2.542-1.587.936-6.72 4.918-1.723.855-5.287 4.299-12.448 5.262-17.68.095-4.45-4.394-5.383-13.38-.095-17.681 20.901-16.995 50.981-18.516 76.188-12.691 6.631 1.532 10.507 8.99 8.758 15.359-1.857 6.76-8.719 10.292-15.359 8.758-4.2-.97-8.424-1.674-12.679-2.044.117 3.42.297 6.837.552 10.25a277.451 277.451 0 0 0 1.307 13.48c-.041-.38.331 2.367.365 2.596 1.787 12.094 4.295 24.087 7.669 35.841 1.791 6.237 3.757 12.424 5.979 18.52a280.428 280.428 0 0 0 4.151 10.771l.085.2a266.404 266.404 0 0 0 1.542 3.554c4.893 10.998 10.417 21.721 16.655 32.019 5.576 9.202 11.604 18.134 18.154 26.674l.615.799a311.383 311.383 0 0 0 3.583 4.455 299.466 299.466 0 0 0 5.008 5.952c3.406 3.925 6.888 7.786 10.49 11.533 7.545 7.847 15.46 15.344 23.788 22.359a314.936 314.936 0 0 0 10.208 8.278c.432.334.722.56.904.703l.438.327c4.236 3.167 8.532 6.255 12.92 9.208 9.217 6.204 18.72 11.989 28.526 17.218 5.147 2.744 10.35 5.382 15.636 7.849a329.298 329.298 0 0 0 7.39 3.359c.981.428 1.96.857 2.944 1.278-.13-.06 2.445 1.016 2.508 1.041 21.375 8.627 43.606 15.163 66.295 19.267 3.243.587 6.491 1.148 9.75 1.641 1.205.182 2.412.365 3.621.536-1.06-.152 2.624.332 2.633.333 5.688.695 11.389 1.282 17.105 1.696 12.096.873 24.237 1.194 36.361.819 24.581-.76 43.95-3.209 68.064-9.123 11.179-2.741 22.239-5.984 33.081-9.853a332.53 332.53 0 0 0 12.775-4.824c.207-.084 4.354-1.799 1.566-.62 4.987-2.108 9.937-4.309 14.816-6.659 20.006-9.639 39.116-21.188 56.744-34.711l.875-.673a520.9 520.9 0 0 0 1.45-1.148c1.025-.822 2.052-1.643 3.068-2.478a313.474 313.474 0 0 0 6.033-5.061c3.959-3.42 7.856-6.917 11.639-10.533 7.836-7.491 15.33-15.345 22.33-23.627a297.448 297.448 0 0 0 8.168-10.05c.299-.387.509-.657.65-.836l.32-.429c3.092-4.141 6.102-8.343 8.974-12.64 5.968-8.937 11.509-18.167 16.45-27.714 2.569-4.964 5.027-9.988 7.3-15.096.525-1.18 1.049-2.36 1.558-3.546.227-.53.375-.871.464-1.074l.157-.386a276.99 276.99 0 0 0 2.841-7.219c3.801-10.133 7.084-20.465 9.677-30.975 1.359-5.507 2.587-11.048 3.603-16.63.473-2.59.926-5.184 1.323-7.787.031-.201.645-4.506.262-1.632.175-1.313.35-2.625.505-3.94a288.817 288.817 0 0 0 1.917-26.767c-4.739.293-9.602 1.034-14.671 2.206-15.671 3.621-22.195-20.515-6.47-24.148 25.081-5.795 55.206-4.318 76.028 12.612 5.298 4.308 4.531 13.188.095 17.681-5.14 5.204-12.406 4.383-17.681.094 4.586 3.729-.036.073-1.738-.907a58.993 58.993 0 0 0-4.882-2.543c-.37-.169-.637-.294-.824-.383l-.173-.065a104.69 104.69 0 0 0-1.796-.671c-2.213 58.176-21.895 115.396-56.363 162.412C-84.107-57.257-169.668-9.676-262.478 2.04c-94.368 11.913-192.179-14.572-266.102-74.77-66.582-54.219-109.001-134.319-113.151-220.049zM-434.23-48.29l.047.02-.047-.02zm-177.662-222.756.003.026-.003-.026z" style="fill:#231f20" transform="translate(3419.044 3501.744) scale(4.16667)"/></svg>