<svg width="27" height="27" fill="none" xmlns="http://www.w3.org/2000/svg"><path d="M13.986 26.027c-7.173 0-13.013-5.84-13.013-13.013C.973 5.84 6.813 0 13.986 0 21.16 0 27 5.84 27 13.014c0 7.173-5.84 13.013-13.014 13.013zm10.975-11.233c-.38-.119-3.438-1.033-6.923-.475 1.453 3.995 2.046 7.249 2.16 7.925a11.149 11.149 0 0 0 4.767-7.45h-.004zm-6.631 8.468c-.166-.976-.814-4.373-2.375-8.427l-.072.022c-6.279 2.185-8.524 6.534-8.719 6.94a11.02 11.02 0 0 0 6.821 2.35c1.54 0 3.004-.315 4.338-.883l.007-.002zM5.728 20.464c.252-.434 3.302-5.482 9.036-7.337.146-.048.293-.09.44-.13a39.511 39.511 0 0 0-.903-1.887C8.749 12.77 3.365 12.7 2.877 12.688l-.004.339c0 2.855 1.082 5.462 2.856 7.434v.003zm-2.624-9.711c.499.008 5.078.028 10.277-1.354a70.982 70.982 0 0 0-4.12-6.429 11.143 11.143 0 0 0-6.156 7.776l-.001.006zm8.28-8.528c.306.412 2.326 3.16 4.145 6.507 3.953-1.48 5.628-3.73 5.826-4.015a11.05 11.05 0 0 0-7.369-2.804c-.894 0-1.767.108-2.602.31v.002zm11.208 3.778c-.237.314-2.099 2.703-6.208 4.38.26.532.51 1.069.738 1.612.086.196.162.39.238.575 3.698-.466 7.375.282 7.743.358a11 11 0 0 0-2.505-6.919l-.006-.006z" fill="#000"/></svg>