<svg width="28" height="27" fill="none" xmlns="http://www.w3.org/2000/svg"><path d="M23.16 22.18h-3.854v-6.04c0-1.44-.029-3.293-2.008-3.293-2.01 0-2.316 1.567-2.316 3.187v6.146h-3.855V9.76h3.703v1.693h.05c.517-.976 1.775-2.006 3.654-2.006 3.905 0 4.628 2.57 4.628 5.916l-.002 6.817zM6.774 8.06a2.236 2.236 0 0 1-1.86-3.482 2.238 2.238 0 1 1 1.86 3.483zm1.933 14.12H4.842V9.76h3.865v12.42zM25.089 0H2.907C1.845 0 .987.84.987 1.875v22.277c0 1.037.858 1.875 1.92 1.875h22.178c1.061 0 1.929-.838 1.929-1.875V1.875C27.014.839 26.146 0 25.085 0h.004z" fill="#000"/></svg>