<svg width="27" height="26" fill="none" xmlns="http://www.w3.org/2000/svg"><path d="M13.014 0C5.824 0 0 5.827 0 13.014c0 5.75 3.728 10.627 8.898 12.346.65.123.89-.28.89-.625 0-.31-.012-1.128-.017-2.213-3.62.785-4.383-1.746-4.383-1.746-.593-1.502-1.448-1.903-1.448-1.903-1.179-.807.09-.79.09-.79 1.308.09 1.994 1.34 1.994 1.34 1.16 1.99 3.046 1.415 3.79 1.082.118-.841.453-1.415.825-1.74-2.89-.326-5.928-1.445-5.928-6.431 0-1.421.504-2.581 1.34-3.492-.147-.329-.586-1.652.113-3.445 0 0 1.09-.349 3.579 1.334a12.476 12.476 0 0 1 3.253-.439c1.106.007 2.213.15 3.254.44 2.472-1.684 3.562-1.335 3.562-1.335.7 1.793.26 3.116.13 3.445.83.91 1.334 2.071 1.334 3.492 0 4.999-3.042 6.1-5.937 6.42.455.39.878 1.188.878 2.407 0 1.742-.016 3.14-.016 3.564 0 .341.227.748.895.618 5.206-1.707 8.931-6.587 8.931-12.33C26.027 5.828 20.2 0 13.014 0z" fill="#000"/></svg>